<?xml version="1.0" encoding="UTF-8"?>
<svg id="Layer_1" xmlns="http://www.w3.org/2000/svg" xmlns:serif="http://www.serif.com/" version="1.1" viewBox="0 0 768.9 768">
  <!-- Generator: Adobe Illustrator 29.0.0, SVG Export Plug-In . SVG Version: 2.1.0 Build 186)  -->
  <g id="Layer_4">
    <path d="M242.7,410.4c0-73.4,39.7-162.7,122.4-162.7s53.3,9.2,71.3,28.3l3.3-22.3h83.2l-23.4,138.7c-1.1,8.2-2.2,16.9-2.2,24.5,0,17.4,4.9,31.6,28.8,31.6,34.8,0,48.4-41.3,48.4-86.5,0-112.6-67.5-182.3-193.1-182.3s-187.2,72.9-187.2,206.7,93.6,199.7,210,199.7,109.9-12.5,165.9-38.1v71.8c-57.1,24.5-112.6,35.9-165.9,35.9-155.1,0-277.5-94.7-277.5-270.9-.5-167,125.7-272.6,255.2-272.6s260.1,100.7,260.1,241-36.5,179-142,179-75.6-21.8-84.9-54.9c-19.6,33.7-46.8,53.9-83.2,53.9s-89.2-34.8-89.2-120.8h0ZM413,426.7l13.1-84.9c-12-4.9-25.6-8.2-39.2-8.2-43.5,0-67.5,34.8-67.5,65.3s14.1,44.1,44.1,44.1,32.6-4.9,49.5-16.3h0Z"/>
  </g>
</svg>