<?xml version="1.0" encoding="UTF-8"?>
<svg id="Layer_1" xmlns="http://www.w3.org/2000/svg" xmlns:serif="http://www.serif.com/" version="1.1" viewBox="0 0 769.4 768">
  <!-- Generator: Adobe Illustrator 29.0.0, SVG Export Plug-In . SVG Version: 2.1.0 Build 186)  -->
  <defs>
    <style>
      .st0 {
        fill-rule: evenodd;
      }
    </style>
  </defs>
  <path class="st0" d="M638.3,282.5c-1.2-25-4.9-44.3-12.2-62.6-7.1-18.6-16.6-33.1-30.5-46.9-13.8-13.8-28.3-23.3-46.9-30.5-18.7-7.2-38-11-62.6-12.2-26.4-1.3-35.5-1.4-101.4-1.4s-74.3.2-101.4,1.4c-25,1.2-44.3,4.9-62.6,12.2-18.6,7.1-33.1,16.6-46.9,30.6-13.9,14-23.3,28.4-30.5,46.9-7.2,18.7-11,38-12.2,62.6-1.3,26.4-1.4,35.5-1.4,101.4s.2,74.3,1.4,101.4c1.2,25,4.9,44.3,12.2,62.6,7.1,18.6,16.6,33.1,30.5,46.9,13.8,13.8,28.3,23.3,46.9,30.5,18.7,7.2,38,11,62.6,12.2,26.4,1.3,35.5,1.4,101.4,1.4s74.3-.2,101.4-1.4c25-1.2,44.3-4.9,62.6-12.2,18.6-7.1,33.1-16.6,46.9-30.5,13.8-13.8,23.3-28.3,30.5-46.9,7.2-18.7,11-38,12.2-62.6,1.3-26.4,1.4-35.5,1.4-101.4s-.2-74.3-1.4-101.4h0ZM573.8,482.5c-1.1,22.4-4.7,34.4-7.8,42.2-4,10.2-8.5,17.1-16.1,24.7-7.6,7.6-14.5,12-24.7,16-7.9,3-19.9,6.8-42.3,7.8-25.1,1.2-32,1.4-98.5,1.4s-73.3-.2-98.5-1.4c-22.4-1.1-34.4-4.7-42.2-7.8-10.2-4-17.1-8.5-24.7-16.1s-12-14.5-16-24.7c-3-7.9-6.8-19.9-7.8-42.3-1.2-25.1-1.4-32-1.4-98.5s.2-73.3,1.4-98.5c1.1-22.4,4.7-34.4,7.8-42.2,4-10.2,8.5-17.1,16.1-24.7,7.6-7.6,14.5-12,24.7-16,7.9-3,19.9-6.8,42.3-7.8,26.1-1.3,34.1-1.4,98.5-1.4s72.3.1,98.5,1.4c22.4,1.1,34.4,4.7,42.2,7.8,10.2,4,17.1,8.5,24.7,16.1s12,14.5,16,24.7c3,7.9,6.8,19.9,7.8,42.3,1.2,25.1,1.4,32,1.4,98.5s-.2,73.3-1.4,98.5h0Z"/>
  <path class="st0" d="M386.1,304.5c-56.9,0-103,46.2-103,103s46.2,103,103,103c56.8,0,103-46.2,103-103s-46.2-103-103-103ZM386.1,458.7c-28.3,0-51.3-23-51.3-51.3,0-28.3,23-51.3,51.3-51.3,28.3,0,51.3,23,51.3,51.3,0,28.3-23,51.3-51.3,51.3Z"/>
  <circle cx="497.7" cy="269.1" r="33.7" transform="translate(62.5 630.5) rotate(-68.1)"/>
</svg>