<?xml version="1.0" encoding="UTF-8"?>
<svg id="Layer_1" xmlns="http://www.w3.org/2000/svg" xmlns:serif="http://www.serif.com/" version="1.1" viewBox="0 0 771 768">
  <!-- Generator: Adobe Illustrator 29.0.0, SVG Export Plug-In . SVG Version: 2.1.0 Build 186)  -->
  <defs>
    <style>
      .st0 {
        fill-rule: evenodd;
      }
    </style>
  </defs>
  <g>
    <path class="st0" d="M368.9,213.1h-3.6c-7.1.2-12.7,6.2-12.7,13.3s6.2,13,13.2,12.7h3.6c3.1,0,5.8,2.5,5.8,5.7v3.6c0,7,5.9,12.7,13,12.7h.2c7.3,0,13-6.1,12.7-13.2v-3.6c-.4-17.6-14.8-31.6-32.3-31.3h.1,0Z"/>
    <path class="st0" d="M415.2,186.9c-10.4-8-21.3-12.8-32.9-15.7s-24-3.8-37.2-4l-36.2-.7c-1.9,0-3.5,1.5-3.5,3.4h0l-3.5,182.4c0,1.9,1.5,3.5,3.4,3.5l35.6.6c26.4.6,47.1-1.7,69.6-16.8,25.3-17.2,38.9-44.1,39.5-75.7.6-31.6-12.2-59.4-34.9-77.2h0v.2h.1ZM413.3,263.3c-.4,21.3-11.3,36.1-22.2,44.1-13.8,9.8-29.9,10.4-41.7,10.1h-6.9c-1.9,0-3.4-1.6-3.4-3.6l2.1-104.4c0-1.9,1.6-3.4,3.5-3.3h6.8c11.6.2,28.1,1.5,41.7,11.6,11.1,8.5,20.6,25,20.2,45.5h-.1Z"/>
  </g>
  <g>
    <path class="st0" d="M528.9,219.5h-2.2c-4.2.2-7.8,3.8-7.8,8.1s3.8,7.8,8,7.8h2.2c1.9,0,3.5,1.6,3.5,3.4v2.2c0,4.4,3.6,7.8,7.9,7.8,4.4-.2,7.8-3.8,7.8-8.1v-2.2c-.2-10.5-9-19-19.5-18.9h0Z"/>
    <path class="st0" d="M596.3,223.9l-152.6-95.6-5.1,8.2,82,51.4c-13.8.6-27.7,7-37.4,22.5-13,20.8-13.3,50.1,17.9,69.6,29.9,18.7,58.1,8.1,71.7-13.4,6.8-10.9,10.9-27.1,3-44.1l15.3,9.6,5.2-8.4h0v.2ZM552.4,253.5c-7.1,11.4-22.4,17-38.9,6.5-15.7-9.8-17.3-25.2-10.2-36.8h0c8.7-14.1,24.6-15.6,37.8-7.4,16.5,10.3,18.3,26.3,11.3,37.5h0v.2Z"/>
  </g>
  <path class="st0" d="M644.8,471.1l-85.5-147.5c-.5-1-1.6-1.3-2.5-.7l-246.1,154.3c-1,.6-2.2.2-2.5-1l-76.4-167.8c-.2-1-1.5-1.5-2.5-1-99.4,52.9-128.4,140-80.7,240.3,2.7,5.6,5.5,10.8,8.2,15.7,61.7,108.8,162.6,79.7,238.6,43.7,15.4-7.3,29.8-14.8,42.5-21.4l205.9-112.3h0c.6-.5,1-1.1,1-1.8s0-.5-.2-.6h.4-.2ZM164.3,532c19.1-11.4,40.6-17.9,63-18.4,24.3,3.3,38.9,22.5,44.1,52.9.2,1.7,2.3,1,2.3-.8v-3.3c0-20.6-8.6-38.2-21.2-46.8,2.2.4,4.5.8,6.7,1.5h0c43.5,10.3,78.6,42.3,98.8,84.4-68.3,24-148.5,30.6-193.6-69.4h-.1,0Z"/>
</svg>