<?xml version="1.0" encoding="UTF-8"?>
<svg id="Layer_1" xmlns="http://www.w3.org/2000/svg" version="1.1" viewBox="0 0 1341.6 327.3">
  <!-- Generator: Adobe Illustrator 29.0.0, SVG Export Plug-In . SVG Version: 2.1.0 Build 186)  -->
  <path d="M237.4,198.6v-74.5c0-42-28.8-48.3-43-48.3s-32.9,9.2-43.1,25c-8.5-21.6-27.6-25-38.9-25s-30.3,8.3-41.7,22.4v-19.1H20.3v30.6h21.9c2.7,0,2.9.2,2.9,2.9v84.1c0,2.7-.2,2.9-2.9,2.9h-21.9v28.8h72v-28.8h-17.5c-2.7,0-2.9-.2-2.9-2.9v-77.7c10.2-7.1,17.1-10.1,32.5-10.1s23.9,10.4,23.9,29.3v58.6c0,2.7-.2,2.9-2.9,2.9h-18.1v28.8h68.2v-28.8h-17.5c-2.7,0-2.9-.2-2.9-2.9v-78.3c10-6.9,8.9-9.6,31-9.6s24.5,20.5,24.5,29.3v58.6c0,2.7-.2,2.9-2.9,2.9h-18.1v28.8h71.1v-28.8h-20.5c-1.9,0-2.6-.1-2.8-1.1Z"/>
  <path d="M521.8,76.2c-15,0-28.2,7.1-36.2,18.9v-16.5h-50.4v30.6h21.9c2.7,0,2.9.2,2.9,2.9v84.1c0,2.7-.2,2.9-2.9,2.9h-21.9v28.8h0c0,.1,76.5.1,76.5.1v-28.8h-21.9c-2.7,0-2.9-.2-2.9-2.9v-78.9c11.5-5.4,25.1-8.1,34-8.1s10.3.3,12.7.8c.9.1,1.9.4,3.4.6l3.5.6v-32l-2.3-.6c-5.2-1.3-1.4-2.5-16.4-2.5Z"/>
  <path d="M631.1,107.3h15l-48.1,43.3V-.2h-50.1v31.2h20.5c2.7,0,2.9.2,2.9,2.9v162.2c0,2.7-.2,2.9-2.9,2.9h-20.5v28.8h71.1v-28.8h-18.1c-2.7,0-2.9-.2-2.9-2.9v-14.4l19.6-17.8,43.4,63.9h-.1c0,0,42.5,0,42.5,0v-28.8h-24.6c-3.2,0-5-1.1-7.6-4.6l-33.1-48.7,36.2-31.5c2.7-2.4,6.7-5.2,10.7-5.2h18.4v-30.6h-72.3v28.8Z"/>
  <polygon points="369.5 95.3 346.1 129 325.4 97.6 292.5 117.6 325.9 157 292.4 198 328.6 211.2 347.4 184.2 368 215.6 400.9 195.6 367.5 156.2 403.7 113.5 369.5 95.3"/>
  <path d="M1126.8,141.9c-3,0-6.1.8-9,2.6-9.7,5.8-9.7,17.2-7.6,21.7,3.2,6.6,10.6,9,16,9s5.5-.6,7.5-1.8c2.9-1.7,5.7-5,7.5-8.8,2.1-4.4,2.5-8.8,1-12.3-2.2-5-7.9-10.4-15.4-10.4Z"/>
  <path d="M823.4,128.5c-12.2-4.5-21.8-8.1-23.6-17.9-.4-3.5,10.9-13.9,14.2-14.6,1.6-.3-2.2-.4,4.1-.4s10.5,3.5,19.9,12.8l2.8,2.8,1.9-3.5c2.4-4.3,9.9-24.5,14.2-36.8l.5-1.5-1-1.3c-10.3-13.7-40.7-17.4-57.1-17.4s-8.5.4-10.8.9c-23.1,5.6-54.8,33.1-49.7,61.6,4.7,25.7,23.6,33.8,38.8,40.4,11.2,4.8,20.1,8.7,21.2,17.7,1.2,9.5-3.1,11.6-7.9,12.4-1.1.3,3.3.3-3.3.3s-12.3-3.8-20.9-9.7c-1.7-1.1-3.5-2.4-5.5-3.7l-2.9-1.9-1.5,3.2c-2.9,6.5-6.3,13.6-9.5,20.4-4.9,10.3-9.5,20.1-12.1,26.5l-.7,1.7,1.1,1.4c.9,1.1,23.3,27.6,58.8,27.6h-.1c4,0,8.1-.5,12.2-1.2,21.6-3.7,37.7-13,48-27.7,16-22.8,11.5-49.2,11.5-49.5-5.1-28.6-25.9-36.4-42.6-42.6Z"/>
  <path d="M991.6,79.4h-.8c-27.1,0-42.1,11-50.4,22.9,0-1.6-.3-3.8-.5-7.2,0,0-.2-2.9-.2-2.8h-54.9v2.9c0,2,2.1,200.2.3,229.1h0c0,0-.2,3.4-.2,3.3h3.3c3.3-.1,6.9-.2,10.7-.2,14.4-.2,30.7-.5,43.3-3.3l2.3-.5v-2.4c0-6,0-15.8.3-27.3.3-20.8.7-46.3.3-59.2,9.3,1.9,21.2,4.2,30.5,4.2h2.4c35.6-1.5,73.7-26,74-90.5,0-20.5-3.5-35.9-11.1-47-9.8-14.4-26.4-21.8-49.3-22ZM970.4,124.9h.2c6.5,0,16.4,2.3,22.9,8.8,4.6,4.7,6.9,10.9,6.9,18.6,0,13.1-2.9,43.5-29.9,43.5h-.3c-7.4,0-13.5-2.6-18.2-7.5-6.2-6.6-9.5-17.2-8.9-29.2.2-5.5,4.2-14.2,10-21.6,6-7.8,12.6-12.6,17.3-12.6Z"/>
  <path d="M1318.3,69.5c-.4,0-30.3.5-41.1.6v-.6c0-7.8-.3-24.1.4-37.2l.2-3.2h-3.2c-1.4,0-7.4.2-15,.4-10.9.3-24.4.7-29,.7h-3v3c0,.3.4,26.9.4,37.2l-39.8-.4-.5,39.5h40.9l-5.1,128.3,2.5.5c4.5.9,11.5,1.3,21.5,1.3h0c6.3,0,12.7-.2,17.4-.3,2.9,0,5.2,0,6.6,0h2.7l.3-2.7c1.2-12.1,3.7-108.2,4.2-126.9,2.8.1,6.7.3,11.1.5,8.9.4,19.9,1,26.8,1h2.8l.2-2.8c0-1.2,1.6-28.5,1.6-35.8v-3h-3Z"/>
</svg>