<?xml version="1.0" encoding="UTF-8"?>
<svg id="Layer_1" xmlns="http://www.w3.org/2000/svg" version="1.1" viewBox="0 0 1341.6 327.3">
  <!-- Generator: Adobe Illustrator 29.0.0, SVG Export Plug-In . SVG Version: 2.1.0 Build 186)  -->
  <defs>
    <style>
      .st0 {
        fill: #f5f5f5;
      }
    </style>
  </defs>
  <path class="st0" d="M189.6,228.5v-28.8h18.1c2.7,0,2.9-.2,2.9-2.9v-58.6c0-8.8-2.4-29.3-24.5-29.3s-21,2.7-31,9.6v78.3c0,2.7.2,2.9,2.9,2.9h17.5v28.8h-68.2v-28.8h18.1c2.7,0,2.9-.2,2.9-2.9v-58.6c0-18.9-8.5-29.3-23.9-29.3s-22.3,3-32.5,10.1v77.7c0,2.7.2,2.9,2.9,2.9h17.5v28.8H20.3v-28.8h21.9c2.7,0,2.9-.2,2.9-2.9v-84.1c0-2.7-.2-2.9-2.9-2.9h-21.9v-30.6h50.4v19.1c11.4-14.1,30.4-22.4,41.7-22.4s30.4,3.4,38.9,25c10.2-15.8,28.9-25,43.1-25s43,6.3,43,48.3v74.5c.2,1,.9,1.1,2.8,1.1h20.5v28.8h-71.1Z"/>
  <path d="M234.4,196.6v-72.5c0-39.4-24.6-45.3-40-45.3s-35.8,11.8-43.8,29.6c-6.2-24.9-25.2-29.6-38.2-29.6s-36.1,11.8-44.7,29.6v-26.3H23.3v24.6h18.9c4.4,0,5.9,1.5,5.9,5.9v84.1c0,4.4-1.5,5.9-5.9,5.9h-18.9v22.8h66v-22.8h-14.5c-4.4,0-5.9-1.5-5.9-5.9v-79.3c10.7-7.7,21.3-11.5,35.5-11.5s26.9,8.3,26.9,32.3v58.6c0,4.4-1.5,5.9-5.9,5.9h-15.1v22.8h62.2v-22.8h-14.5c-4.4,0-5.9-1.5-5.9-5.9v-79.9c10.4-7.4,20.1-11,34-11s27.5,8.3,27.5,32.3v58.6c0,4.4-1.5,5.9-5.9,5.9h-15.1v22.8h65.1v-22.8h-17.5c-4.4,0-5.9-1.5-5.9-5.9v-.2h.1Z"/>
  <path class="st0" d="M435.2,227.9v-28.8h21.9c2.7,0,2.9-.2,2.9-2.9v-84.1c0-2.7-.2-2.9-2.9-2.9h-21.9v-30.6h50.4v16.5c8-11.8,21.2-18.9,36.2-18.9s11.2,1.2,16.4,2.5l2.3.6v32l-3.5-.6c-1.5-.2-2.5-.5-3.4-.6-2.4-.5-3.8-.8-12.7-.8s-22.5,2.7-34,8.1v78.9c0,2.7.2,2.9,2.9,2.9h21.9v28.8h-76.5Z"/>
  <path d="M482.6,107.9v-26.3h-44.4v24.6h18.9c4.4,0,5.9,1.5,5.9,5.9v84.1c0,4.4-1.5,5.9-5.9,5.9h-18.9v22.8h70.5v-22.8h-18.9c-4.4,0-5.9-1.5-5.9-5.9v-80.8c12.1-5.9,24.6-9.2,37-9.2s11,.6,16.6,1.5v-26.1c-5-1.2-10.4-2.4-15.7-2.4-18.9,0-33.7,11.8-39.1,28.7h0Z"/>
  <path class="st0" d="M661,227.8l-43.4-63.9-19.6,17.8v14.4c0,2.7.2,2.9,2.9,2.9h18.1v28.8h-71.1v-28.8h20.5c2.7,0,2.9-.2,2.9-2.9V33.9c0-2.7-.2-2.9-2.9-2.9h-20.5V-.2h50.1v150.8l48.1-43.3h-15v-28.8h72.3v30.6h-18.4c-4,0-8,2.8-10.7,5.2l-36.2,31.5,33.1,48.7c2.6,3.5,4.4,4.6,7.6,4.6h24.6v28.8h-42.5Z"/>
  <path d="M634.2,104.3h19.8l-58.9,53V2.8h-44.1v25.2h17.5c4.4,0,5.9,1.5,5.9,5.9v162.2c0,4.4-1.5,5.9-5.9,5.9h-17.5v22.8h65.1v-22.8h-15.1c-4.4,0-5.9-1.5-5.9-5.9v-15.7l23.1-21,44.4,65.4h37.9v-22.8h-21.6c-4.4,0-7.1-1.8-10.1-5.9l-34.6-50.9,38.2-33.2c3.8-3.3,8.3-5.9,12.7-5.9h15.4v-24.6h-66.3v22.8h0Z"/>
  <polygon class="st0" points="347.4 184.2 328.6 211.2 292.4 198 325.9 157 292.5 117.6 325.4 97.6 346.1 129 369.5 95.3 403.7 113.5 367.5 156.2 400.9 195.6 368 215.6 347.4 184.2"/>
  <polygon points="370.4 99.2 346 134.4 324.5 101.7 297.1 118.3 329.8 157 297.4 196.6 327.5 207.6 347.5 178.8 368.9 211.5 396.3 194.9 363.6 156.2 399 114.4 370.4 99.2"/>
  <path class="st0" d="M1126.2,175.2c-5.4,0-12.8-2.4-16-9-2.1-4.5-2.1-15.9,7.6-21.7,2.9-1.8,6-2.6,9-2.6,7.5,0,13.2,5.4,15.4,10.4,1.5,3.5,1.1,7.9-1,12.3-1.8,3.8-4.6,7.1-7.5,8.8-2,1.2-4.6,1.8-7.5,1.8h0Z"/>
  <path d="M1119.3,147.1c-8,4.8-8,14.4-6.4,17.8,3.5,7.3,14.4,8.8,19.3,5.9,4.6-2.7,9.7-11.4,7.2-17.3-2.4-5.6-10.5-12.1-20.1-6.4Z"/>
  <path class="st0" d="M794.4,249.5c-35.5,0-57.9-26.5-58.8-27.6l-1.1-1.4.7-1.7c2.6-6.4,7.2-16.2,12.1-26.5,3.2-6.8,6.6-13.9,9.5-20.4l1.5-3.2,2.9,1.9c2,1.3,3.8,2.6,5.5,3.7,8.6,5.9,14.3,9.7,20.9,9.7s2.2,0,3.3-.3c4.8-.8,9.1-2.9,7.9-12.4-1.1-9-10-12.9-21.2-17.7-15.2-6.6-34.1-14.7-38.8-40.4-5.1-28.5,26.6-56,49.7-61.6,2.3-.5,6.1-.9,10.8-.9,16.4,0,46.8,3.7,57.1,17.4l1,1.3-.5,1.5c-4.3,12.3-11.8,32.5-14.2,36.8l-1.9,3.5-2.8-2.8c-9.4-9.3-13.6-12.8-19.9-12.8s-2.5.1-4.1.4c-3.3.7-14.6,11.1-14.2,14.6h0c1.8,9.8,11.4,13.4,23.6,17.9,16.7,6.2,37.5,14,42.6,42.6,0,.3,4.5,26.7-11.5,49.5-10.3,14.7-26.4,24-48,27.7-4.1.7-8.2,1.1-12.2,1.1Z"/>
  <path d="M796.9,111.4c-1.1-6,12.8-17.5,16.6-18.2,10.4-1.8,15.1,1.9,26.6,13.2,2.1-3.9,9.3-23,14-36.4-11.8-15.8-55.7-17.6-64.8-15.4-22,5.4-52.2,31.8-47.5,58.2,7.7,42.7,57,33.6,60,58.3,1.2,9.8-2.6,14.4-10.4,15.7-11,1.9-18-4.4-31.9-13.6-7.5,16.5-17.4,36.4-21.6,46.8,0,0,27.1,32.6,68.2,25.5,61-10.5,58.7-64.2,57-73.7-8.5-47.1-61.4-33.8-66.2-60.5h0Z"/>
  <path class="st0" d="M885.1,324.3c1.8-28.9-.3-227.1-.3-229.1v-2.9s2.9,0,2.9,0c1.8,0,4.6,0,8.6,0s10.9,0,16.8,0c5.8,0,11.5,0,16,0s6.2,0,7.7,0h2.9c0-.1.2,2.8.2,2.8.2,3.4.4,5.6.5,7.2,8.3-11.9,23.3-22.9,50.4-22.9h.8c22.9.2,39.5,7.6,49.3,22,7.6,11.1,11.2,26.5,11.1,47-.3,64.5-38.4,89-74,90.5-.8,0-1.5,0-2.4,0h0c-9.3,0-21.2-2.3-30.5-4.2.4,12.9,0,38.4-.3,59.2-.2,11.5-.3,21.3-.3,27.3v2.4l-2.3.5c-12.6,2.8-28.9,3.1-43.3,3.3-3.8,0-7.4.1-10.7.2h-3.3c0,.1.2-3.2.2-3.2ZM970.4,124.9c-4.7,0-11.3,4.8-17.3,12.6-5.8,7.4-9.8,16.1-10,21.6-.6,12,2.7,22.6,8.9,29.2,4.7,4.9,10.8,7.5,18.2,7.5h.3c27,0,29.9-30.4,29.9-43.5,0-7.7-2.3-13.9-6.9-18.6-6.5-6.5-16.4-8.8-22.9-8.8h0Z"/>
  <path d="M991.7,82.2c-35.6-.3-48.6,19-53.6,30.2-.6-10.3,0-1.1-1.2-17.2-7.9.3-39.8-.3-49.1,0,0,0,2.1,200,.3,229.3,15.8-.5,37.9,0,53.5-3.5,0-18.1,1.4-74.1.5-90.2,9.9,2,25.4,5.3,35.9,4.8,34.3-1.4,70.8-25.3,71.1-87.5.2-33.2-9.2-65.5-57.4-65.9h0ZM970.1,198.8c-21.2-.2-31-19.2-30-39.9.5-12.8,17.8-37.1,30.4-37,10.4,0,32.9,5.7,32.8,30.4,0,19-5.7,46.7-33.2,46.5h0Z"/>
  <path class="st0" d="M1247.5,239.6c-10,0-17-.4-21.5-1.3l-2.5-.5,5.1-128.3h-40.9l.5-39.5,39.8.4c0-10.3-.4-36.9-.4-37.2v-3s3,0,3,0c4.6,0,18.1-.4,29-.7,7.6-.2,13.6-.4,15-.4h3.2l-.2,3.2c-.7,13.1-.5,29.4-.4,37.2,0,.2,0,.4,0,.6,10.8-.1,40.7-.6,41.1-.6h3s0,3,0,3c0,7.3-1.5,34.6-1.6,35.8l-.2,2.8h-2.8c-6.9,0-17.9-.6-26.8-1-4.4-.2-8.3-.4-11.1-.5-.5,18.7-3,114.8-4.2,126.9l-.3,2.7h-2.7c-1.4,0-3.7,0-6.6.1-4.7.1-11.1.3-17.4.3Z"/>
  <path d="M1274.1,73.1c0-4.3-.4-25.1.4-41-3.5,0-36.3,1.1-44,1.1,0,0,.4,34.1.4,40.3l-39.8-.4-.4,33.5h41l-5.1,128.8c11.3,2.2,38.1.8,44.9.8,1.3-13.2,4.3-129.7,4.3-129.7,5.8,0,29.2,1.6,40.8,1.6,0,0,1.6-28.3,1.6-35.6,0,0-38.4.6-44.2.6h0Z"/>
</svg>