<?xml version="1.0" encoding="UTF-8"?>
<svg id="Layer_1" xmlns="http://www.w3.org/2000/svg" version="1.1" viewBox="0 0 354.1 1452.5">
  <!-- Generator: Adobe Illustrator 29.0.0, SVG Export Plug-In . SVG Version: 2.1.0 Build 186)  -->
  <g>
    <path d="M156.6,91.9v-8.8c0-4.8-3-5.5-4.8-5.5s-4.3,1.4-5.3,3.6c-.8-3-3-3.6-4.6-3.6s-4.4,1.4-5.4,3.6v-3.2h-5.4v3h2.3c.5,0,.7.2.7.7v10.2c0,.5-.2.7-.7.7h-2.3v2.8h8v-2.8h-1.8c-.5,0-.7-.2-.7-.7v-9.6c1.3-.9,2.6-1.4,4.3-1.4s3.3,1,3.3,3.9v7.1c0,.5-.2.7-.7.7h-1.8v2.8h7.5v-2.8h-1.8c-.5,0-.7-.2-.7-.7v-9.7c1.3-.9,2.4-1.3,4.1-1.3s3.3,1,3.3,3.9v7.1c0,.5-.2.7-.7.7h-1.8v2.8h7.9v-2.8h-2.1c-.5,0-.7-.2-.7-.7Z"/>
    <path d="M186.6,81.2v-3.2h-5.4v3h2.3c.5,0,.7.2.7.7v10.2c0,.5-.2.7-.7.7h-2.3v2.8h8.5v-2.8h-2.3c-.5,0-.7-.2-.7-.7v-9.8c1.5-.7,3-1.1,4.5-1.1s1.3,0,2,.2v-3.1c-.6-.1-1.3-.3-1.9-.3-2.3,0-4.1,1.4-4.7,3.5Z"/>
    <path d="M204.9,80.8h2.4l-7.1,6.4v-18.7h-5.3v3h2.1c.5,0,.7.2.7.7v19.6c0,.5-.2.7-.7.7h-2.1v2.8h7.9v-2.8h-1.8c-.5,0-.7-.2-.7-.7v-1.9l2.8-2.5,5.4,7.9h4.6v-2.8h-2.6c-.5,0-.9-.2-1.2-.7l-4.2-6.2,4.6-4c.5-.4,1-.7,1.5-.7h1.9v-3h-8v2.8Z"/>
    <polygon points="173.1 80.2 170.1 84.4 167.5 80.5 164.2 82.5 168.1 87.1 164.2 91.9 167.9 93.3 170.3 89.8 172.9 93.7 176.2 91.7 172.2 87 176.5 82 173.1 80.2"/>
    <path d="M263.6,85.9c-1,.6-1,1.7-.8,2.1.4.9,1.7,1.1,2.3.7.6-.3,1.2-1.4.9-2.1-.3-.7-1.3-1.5-2.4-.8Z"/>
    <path d="M224.6,81.6c-.1-.7,1.5-2.1,2-2.2,1.3-.2,1.8.2,3.2,1.6.2-.5,1.1-2.8,1.7-4.4-1.4-1.9-6.7-2.1-7.8-1.9-2.7.7-6.3,3.8-5.7,7,.9,5.2,6.9,4.1,7.2,7.1.1,1.2-.3,1.7-1.3,1.9-1.3.2-2.2-.5-3.9-1.6-.9,2-2.1,4.4-2.6,5.7,0,0,3.3,3.9,8.2,3.1,7.4-1.3,7.1-7.8,6.9-8.9-1-5.7-7.4-4.1-8-7.3Z"/>
    <path d="M248.1,78.1c-4.3,0-5.9,2.3-6.5,3.7,0-1.2,0-.1-.1-2.1-1,0-4.8,0-5.9,0,0,0,.2,24.2,0,27.7,1.9,0,4.6,0,6.5-.4,0-2.2.2-9,0-10.9,1.2.2,3.1.6,4.3.6,4.1-.2,8.6-3.1,8.6-10.6,0-4-1.1-7.9-6.9-8ZM245.5,92.2c-2.6,0-3.7-2.3-3.6-4.8,0-1.5,2.2-4.5,3.7-4.5,1.3,0,4,.7,4,3.7,0,2.3-.7,5.6-4,5.6Z"/>
    <path d="M282.3,77c0-.5,0-3,0-5-.4,0-4.4.1-5.3.1,0,0,0,4.1,0,4.9h-4.8s0,4,0,4h5s-.6,15.6-.6,15.6c1.4.3,4.6.1,5.4,0,.2-1.6.5-15.7.5-15.7.7,0,3.5.2,4.9.2,0,0,.2-3.4.2-4.3,0,0-4.6,0-5.3,0Z"/>
  </g>
  <g>
    <path d="M156.6,1297.9v-8.8c0-4.8-3-5.5-4.8-5.5s-4.3,1.4-5.3,3.6c-.8-3-3-3.6-4.6-3.6s-4.4,1.4-5.4,3.6v-3.2h-5.4v3h2.3c.5,0,.7.2.7.7v10.2c0,.5-.2.7-.7.7h-2.3v2.8h8v-2.8h-1.8c-.5,0-.7-.2-.7-.7v-9.6c1.3-.9,2.6-1.4,4.3-1.4s3.3,1,3.3,3.9v7.1c0,.5-.2.7-.7.7h-1.8v2.8h7.5v-2.8h-1.8c-.5,0-.7-.2-.7-.7v-9.7c1.3-.9,2.4-1.3,4.1-1.3s3.3,1,3.3,3.9v7.1c0,.5-.2.7-.7.7h-1.8v2.8h7.9v-2.8h-2.1c-.5,0-.7-.2-.7-.7Z"/>
    <path d="M186.6,1287.1v-3.2h-5.4v3h2.3c.5,0,.7.2.7.7v10.2c0,.5-.2.7-.7.7h-2.3v2.8h8.5v-2.8h-2.3c-.5,0-.7-.2-.7-.7v-9.8c1.5-.7,3-1.1,4.5-1.1s1.3,0,2,.2v-3.1c-.6-.1-1.3-.3-1.9-.3-2.3,0-4.1,1.4-4.7,3.5Z"/>
    <path d="M204.9,1286.7h2.4l-7.1,6.4v-18.7h-5.3v3h2.1c.5,0,.7.2.7.7v19.6c0,.5-.2.7-.7.7h-2.1v2.8h7.9v-2.8h-1.8c-.5,0-.7-.2-.7-.7v-1.9l2.8-2.5,5.4,7.9h4.6v-2.8h-2.6c-.5,0-.9-.2-1.2-.7l-4.2-6.2,4.6-4c.5-.4,1-.7,1.5-.7h1.9v-3h-8v2.8Z"/>
    <polygon points="173.1 1286.1 170.1 1290.3 167.5 1286.4 164.2 1288.4 168.1 1293.1 164.2 1297.9 167.9 1299.2 170.3 1295.7 172.9 1299.7 176.2 1297.7 172.2 1293 176.5 1287.9 173.1 1286.1"/>
    <path d="M263.6,1291.9c-1,.6-1,1.7-.8,2.1.4.9,1.7,1.1,2.3.7.6-.3,1.2-1.4.9-2.1-.3-.7-1.3-1.5-2.4-.8Z"/>
    <path d="M224.6,1287.6c-.1-.7,1.5-2.1,2-2.2,1.3-.2,1.8.2,3.2,1.6.2-.5,1.1-2.8,1.7-4.4-1.4-1.9-6.7-2.1-7.8-1.9-2.7.7-6.3,3.8-5.7,7,.9,5.2,6.9,4.1,7.2,7.1.1,1.2-.3,1.7-1.3,1.9-1.3.2-2.2-.5-3.9-1.6-.9,2-2.1,4.4-2.6,5.7,0,0,3.3,3.9,8.2,3.1,7.4-1.3,7.1-7.8,6.9-8.9-1-5.7-7.4-4.1-8-7.3Z"/>
    <path d="M248.1,1284c-4.3,0-5.9,2.3-6.5,3.7,0-1.2,0-.1-.1-2.1-1,0-4.8,0-5.9,0,0,0,.2,24.2,0,27.7,1.9,0,4.6,0,6.5-.4,0-2.2.2-9,0-10.9,1.2.2,3.1.6,4.3.6,4.1-.2,8.6-3.1,8.6-10.6,0-4-1.1-7.9-6.9-8ZM245.5,1298.1c-2.6,0-3.7-2.3-3.6-4.8,0-1.5,2.2-4.5,3.7-4.5,1.3,0,4,.7,4,3.7,0,2.3-.7,5.6-4,5.6Z"/>
    <path d="M282.3,1282.9c0-.5,0-3,0-5-.4,0-4.4.1-5.3.1,0,0,0,4.1,0,4.9h-4.8s0,4,0,4h5s-.6,15.6-.6,15.6c1.4.3,4.6.1,5.4,0,.2-1.6.5-15.7.5-15.7.7,0,3.5.2,4.9.2,0,0,.2-3.4.2-4.3,0,0-4.6,0-5.3,0Z"/>
  </g>
  <path d="M165.5,1281.8l-.8-6.1,4.8-.7.8,6.1-4.8.7ZM163.1,1265.9l-.4-2.4c-.2-1-.3-2-.5-2.9l-.4-2.4,4.8-.8.4,2.4c.2,1,.3,2,.5,3l.4,2.4-4.8.8ZM160.2,1248.4l-.5-2.4c-.2-1-.4-2-.6-2.9l-.5-2.4,4.7-1,.5,2.4c.2,1,.4,1.9.6,2.9l.5,2.4-4.7.9ZM156.5,1231.1l-.6-2.3c-.2-1-.5-1.9-.7-2.8l-.6-2.3,4.7-1.2.6,2.3c.3.9.5,1.9.8,2.9l.6,2.3-4.7,1.2ZM151.6,1214.2l-.8-2.3c-.3-.9-.7-1.9-1-2.8l-.8-2.3,4.5-1.7.8,2.3c.3.9.7,1.9,1,2.8l.8,2.3-4.6,1.6ZM145.3,1197.7l-1-2.2c-.4-.9-.8-1.8-1.2-2.7l-1-2.2,4.4-1.9,1,2.2c.4.9.8,1.8,1.2,2.7l1,2.2-4.4,1.9ZM138.2,1181.4l-1-2.2c-.4-.9-.8-1.8-1.2-2.7l-1-2.2,4.4-1.9,1,2.2c.4.9.8,1.8,1.2,2.7l1,2.2-4.4,1.9ZM131.3,1164.9l-.9-2.2c-.4-.9-.7-1.8-1.1-2.8l-.9-2.2,4.5-1.8.9,2.2c.4.9.7,1.9,1.1,2.8l.9,2.2-4.5,1.8ZM124.7,1148.2l-.8-2.3c-.3-.9-.7-1.9-1-2.8l-.8-2.3,4.5-1.7.8,2.3c.3.9.7,1.9,1,2.8l.8,2.3-4.5,1.7ZM118.7,1131.4l-2.5-7.4,4.6-1.6,2.5,7.4-4.6,1.6ZM112.9,1114.5l-2.4-7.4,4.6-1.5,2.4,7.4-4.6,1.5ZM107.5,1097.4l-2.3-7.5,4.6-1.4,2.3,7.5-4.6,1.4ZM180.6,1096.8v-4.8s2.4,0,2.4,0c1,0,2,0,2.9,0h2.4s0,4.8,0,4.8h-2.4c-1,0-2,0-3,0h-2.4ZM170.4,1096.4l-2.4-.2c-1,0-2-.2-3-.2l-2.4-.2.4-4.8,2.4.2c1,0,1.9.2,2.9.2l2.4.2-.3,4.8ZM198.7,1096.2l-.4-4.8,2.4-.2c1,0,2-.2,2.9-.3l2.4-.2.5,4.8-2.4.2c-1,.1-2,.2-3,.3l-2.4.2ZM152.4,1094.5l-2.4-.4c-1-.2-2-.4-3-.6l-2.4-.5.9-4.7,2.4.5c1,.2,1.9.4,2.9.5l2.4.4-.8,4.7ZM216.6,1094.1l-.9-4.7,2.4-.4c1-.2,1.9-.4,2.9-.5l2.4-.5.9,4.7-2.4.5c-1,.2-2,.4-3,.6l-2.4.4ZM134.7,1090.6l-2.3-.7c-1-.3-1.9-.6-2.9-.9l-2.3-.7,1.5-4.6,2.3.7c.9.3,1.9.6,2.8.9l2.3.7-1.4,4.6ZM234.3,1090.2l-1.4-4.6,2.3-.7c.9-.3,1.9-.6,2.8-.9l2.3-.7,1.4,4.6-2.3.7c-1,.3-1.9.6-2.9.9l-2.3.7ZM117.5,1084.7l-2.2-.9c-.9-.4-1.9-.8-2.8-1.2l-2.2-1,2-4.4,2.2,1c.9.4,1.8.8,2.7,1.2l2.2.9-1.9,4.4ZM251.5,1084.3l-1.9-4.4,2.2-.9c.9-.4,1.8-.8,2.7-1.2l2.2-1,2,4.4-2.2,1c-.9.4-1.8.8-2.8,1.2l-2.2.9ZM102.3,1080.3l-1.1-3.6v.2c0,0-2.2-1.2-2.2-1.2-.9-.5-1.7-1-2.6-1.5l-2.1-1.2,2.5-4.1,2.1,1.2c.8.5,1.7,1,2.5,1.5l1.1.6,2.2-.6,2.2,7.5-4.6,1.4ZM267.9,1076.5l-2.4-4.2,2.1-1.2c.8-.5,1.7-1,2.5-1.5l2.1-1.3,2.5,4.1-2.1,1.3c-.9.5-1.7,1-2.6,1.6l-2.1,1.2ZM85.8,1067.2l-1.9-1.4c-.8-.6-1.6-1.2-2.4-1.8l-1.9-1.5,2.9-3.8,1.9,1.5c.8.6,1.6,1.2,2.3,1.8l1.9,1.4-2.9,3.9ZM283.1,1066.5l-3-3.8,1.9-1.5c.8-.6,1.5-1.2,2.3-1.8l1.9-1.5,3.1,3.7-1.9,1.5c-.8.6-1.6,1.3-2.4,1.9l-1.9,1.5ZM97.3,1063l-.6-2.3c-.3-1-.5-1.9-.7-2.9l-.6-2.3,4.7-1.2.6,2.3c.2,1,.5,1.9.7,2.9l.6,2.3-4.7,1.2ZM71.7,1055.8l-1.8-1.6c-.7-.7-1.5-1.4-2.2-2.1l-1.7-1.7,3.3-3.5,1.7,1.7c.7.7,1.4,1.3,2.1,2l1.8,1.6-3.3,3.5ZM296.8,1054.6l-3.5-3.4,1.7-1.7c.7-.7,1.3-1.4,2-2.1l1.6-1.8,3.5,3.3-1.6,1.8c-.7.7-1.4,1.5-2.1,2.2l-1.7,1.7ZM93.2,1045.5l-.5-2.4c-.2-1-.4-2-.6-2.9l-.5-2.4,4.7-.9.5,2.4c.2,1,.4,1.9.6,2.9l.5,2.4-4.7.9ZM58.9,1043l-1.6-1.8c-.7-.8-1.3-1.5-2-2.3l-1.6-1.8,3.7-3.1,1.6,1.8c.6.7,1.3,1.5,1.9,2.2l1.6,1.8-3.6,3.2ZM308.8,1040.9l-3.9-2.8,1.4-1.9c.6-.8,1.1-1.6,1.7-2.4l1.4-2,4,2.8-1.4,2c-.6.8-1.2,1.7-1.8,2.5l-1.4,1.9ZM47.5,1029l-1.4-2c-.6-.8-1.2-1.6-1.7-2.5l-1.4-2,4-2.8,1.4,2c.6.8,1.1,1.6,1.7,2.4l1.4,2-3.9,2.8ZM90,1027.8l-.3-2.4c-.1-1-.3-2-.4-3l-.3-2.4,4.8-.6.3,2.4c.1,1,.2,1.9.4,2.9l.3,2.4-4.8.6ZM318.8,1025.7l-4.2-2.3,1.1-2.1c.5-.9.9-1.7,1.4-2.6l1.1-2.1,4.3,2.2-1.1,2.2c-.5.9-.9,1.8-1.4,2.7l-1.1,2.1ZM37.4,1014l-1.2-2.1c-.5-.9-1-1.7-1.5-2.6l-1.2-2.1,4.2-2.4,1.2,2.1c.5.9,1,1.7,1.5,2.5l1.2,2.1-4.2,2.5ZM88.1,1009.8v-2.4c-.2-1-.2-2-.3-3v-2.4c-.1,0,4.7-.2,4.7-.2v2.4c.1,1,.2,2,.2,2.9v2.4c.1,0-4.7.3-4.7.3ZM326.5,1009.2l-4.5-1.7.8-2.3c.3-.9.7-1.8,1-2.8l.8-2.3,4.6,1.6-.8,2.3c-.3,1-.7,1.9-1,2.9l-.8,2.3ZM28.7,998.1l-1.1-2.2c-.4-.9-.9-1.8-1.3-2.7l-1-2.2,4.4-2,1,2.2c.4.9.8,1.8,1.3,2.7l1.1,2.2-4.3,2.1ZM92.5,991.9l-4.8-.2v-2.4c.1-1,.2-2,.2-3v-2.4c.1,0,4.9.2,4.9.2v2.4c-.2,1-.2,2-.3,2.9v2.4ZM332.1,991.9l-4.7-1.1.5-2.4c.2-1,.4-1.9.6-2.9l.5-2.4,4.7,1-.5,2.4c-.2,1-.4,2-.6,3l-.5,2.4ZM21.3,981.7l-.9-2.2c-.4-.9-.7-1.9-1.1-2.8l-.9-2.3,4.5-1.7.9,2.3c.3.9.7,1.8,1.1,2.7l.9,2.2-4.5,1.8ZM93.8,974.3l-4.8-.7.3-2.4c.1-1,.3-2,.5-3l.4-2.4,4.8.8-.4,2.4c-.2,1-.3,1.9-.4,2.9l-.3,2.4ZM335.3,974l-4.8-.4.2-2.4c0-1,.2-1.9.2-2.9l.2-2.4,4.8.3-.2,2.4c0,1-.2,2-.2,3l-.2,2.4ZM15.2,964.7l-.7-2.3c-.3-1-.6-1.9-.9-2.9l-.7-2.3,4.6-1.4.7,2.3c.3.9.6,1.9.9,2.8l.7,2.3-4.6,1.4ZM97,957.1l-4.7-1.3.6-2.3c.3-1,.5-2,.8-2.9l.7-2.3,4.6,1.4-.7,2.3c-.3.9-.5,1.9-.8,2.8l-.6,2.3ZM331.2,956v-2.4c-.2-1-.2-1.9-.3-2.9l-.2-2.4,4.8-.3.2,2.4c0,1,.1,2,.2,3v2.4c.1,0-4.7.2-4.7.2ZM10.3,947.3l-.5-2.3c-.2-1-.4-2-.7-2.9l-.5-2.4,4.7-1,.5,2.4c.2,1,.4,1.9.6,2.9l.5,2.3-4.7,1.1ZM102.4,940.4l-4.4-1.9.9-2.2c.4-.9.8-1.9,1.2-2.8l1-2.2,4.4,2-1,2.2c-.4.9-.8,1.8-1.2,2.7l-.9,2.2ZM329.5,938.6l-.5-2.4c-.2-1-.4-1.9-.6-2.8l-.5-2.3,4.7-1.1.5,2.3c.2,1,.4,2,.6,3l.5,2.4-4.7,1ZM6.8,929.6l-.4-2.4c-.2-1-.3-2-.4-3l-.3-2.4,4.8-.7.3,2.4c.1,1,.3,1.9.4,2.9l.4,2.4-4.8.7ZM110,924.6l-4.1-2.5,1.2-2.1c.5-.9,1.1-1.7,1.6-2.6l1.3-2,4.1,2.6-1.3,2c-.5.8-1,1.6-1.5,2.5l-1.2,2.1ZM325,921.7l-.9-2.3c-.3-.9-.7-1.8-1.1-2.7l-.9-2.2,4.5-1.8.9,2.2c.4.9.8,1.9,1.1,2.8l.9,2.3-4.5,1.7ZM4.5,911.6l-.2-2.4c0-1-.1-2-.2-3v-2.4c-.1,0,4.7-.3,4.7-.3v2.4c.2,1,.3,2,.4,2.9l.2,2.4-4.8.4ZM119.8,910.1l-3.7-3.1,1.5-1.9c.6-.8,1.3-1.6,2-2.3l1.6-1.8,3.7,3.1-1.6,1.8c-.6.7-1.3,1.5-1.9,2.2l-1.5,1.9ZM317.9,905.7l-1.2-2.1c-.5-.8-1-1.7-1.5-2.5l-1.3-2.1,4.1-2.5,1.3,2.1c.5.9,1.1,1.7,1.6,2.6l1.2,2.1-4.2,2.4ZM131.6,897.1l-3.3-3.5,1.8-1.6c.7-.7,1.5-1.4,2.2-2l1.8-1.6,3.2,3.6-1.8,1.6c-.7.6-1.4,1.3-2.2,2l-1.8,1.6ZM8.5,893.6H3.7s0-2.4,0-2.4c0-1,0-2,0-3v-2.4s4.9,0,4.9,0v2.4c0,1,0,2,0,2.9v2.4ZM308.2,891.2l-1.5-1.9c-.6-.8-1.2-1.5-1.9-2.2l-1.6-1.8,3.6-3.2,1.6,1.8c.7.8,1.3,1.5,2,2.3l1.5,1.9-3.7,3.1ZM145,885.7l-2.8-3.9,2-1.4c.8-.6,1.6-1.2,2.5-1.8l2-1.4,2.8,4-2,1.4c-.8.6-1.6,1.1-2.4,1.7l-2,1.4ZM296.3,878.4l-1.8-1.6c-.7-.6-1.5-1.3-2.2-1.9l-1.9-1.5,3-3.7,1.9,1.5c.8.6,1.6,1.3,2.3,2l1.8,1.6-3.2,3.6ZM9.1,876l-4.8-.4.2-2.4c0-1,.2-2,.3-3l.2-2.4,4.8.5-.2,2.4c0,1-.2,1.9-.3,2.9l-.2,2.4ZM159.6,875.9l-2.4-4.2,2.1-1.2c.9-.5,1.7-1,2.6-1.5l2.1-1.2,2.4,4.2-2.1,1.2c-.9.5-1.7,1-2.6,1.5l-2.1,1.2ZM282.5,867.8l-2.1-1.2c-.8-.5-1.7-1-2.5-1.5l-2.1-1.2,2.4-4.2,2.1,1.2c.9.5,1.8,1,2.6,1.5l2.1,1.2-2.5,4.1ZM175.2,867.5l-2.1-4.4,2.2-1c.9-.4,1.8-.9,2.7-1.3l2.2-1,2,4.4-2.2,1c-.9.4-1.8.8-2.7,1.2l-2.2,1ZM191.4,860.4l-1.7-4.5,2.3-.8c1-.4,1.9-.7,2.9-1l2.3-.8,1.6,4.6-2.3.8c-.9.3-1.8.6-2.7,1l-2.3.8ZM267,859.8l-2.3-.9c-.9-.3-1.8-.7-2.7-1l-2.3-.8,1.6-4.6,2.3.8c1,.3,1.9.7,2.9,1l2.3.9-1.7,4.5ZM11.2,858.5l-4.7-.9.5-2.4c.2-1,.4-2,.6-3l.5-2.4,4.7,1-.5,2.4c-.2,1-.4,1.9-.6,2.9l-.5,2.4ZM208,855.2l-1-4.7,2.4-.5c1-.2,2-.4,3-.6l2.4-.4.8,4.8-2.4.4c-1,.2-1.9.3-2.9.5l-2.4.5ZM250.4,854.7l-2.4-.4c-1-.2-1.9-.3-2.9-.5l-2.4-.4.7-4.8,2.4.4c1,.2,2,.3,3,.5l2.4.4-.9,4.7ZM225.3,852.8v-4.8c-.1,0,2.3,0,2.3,0,.9,0,1.9,0,2.8,0h2.6v4.8h-2.7c-.9,0-1.8,0-2.7,0h-2.4ZM15.2,841.5l-4.6-1.5.7-2.3c.3-1,.6-1.9.9-2.9l.8-2.3,4.6,1.6-.8,2.3c-.3.9-.6,1.8-.9,2.8l-.7,2.3ZM21.3,825.1l-4.4-2.1,1-2.2c.4-.9.9-1.8,1.3-2.7l1.1-2.2,4.3,2.2-1.1,2.2c-.4.9-.9,1.7-1.3,2.6l-1,2.2ZM29.6,809.8l-4-2.7,1.3-2c.6-.8,1.1-1.7,1.7-2.5l1.4-2,3.9,2.8-1.4,2c-.6.8-1.1,1.6-1.7,2.4l-1.3,2ZM40,795.8l-3.6-3.2,1.6-1.8c.7-.7,1.4-1.5,2.1-2.2l1.7-1.7,3.5,3.3-1.7,1.7c-.7.7-1.3,1.4-2,2.1l-1.6,1.8ZM52.5,783.5l-3.1-3.7,1.9-1.5c.8-.6,1.6-1.3,2.3-1.9l1.9-1.5,3,3.8-1.9,1.5c-.8.6-1.5,1.2-2.3,1.8l-1.9,1.5ZM66.5,772.9l-2.6-4.1,2-1.3c.8-.5,1.7-1.1,2.6-1.6l2-1.3,2.5,4.1-2,1.3c-.8.5-1.7,1-2.5,1.6l-2,1.3ZM81.6,763.9l-2.2-4.3,2.1-1.1c.9-.5,1.8-.9,2.7-1.4l2.2-1.1,2.1,4.3-2.2,1.1c-.9.4-1.8.9-2.6,1.3l-2.1,1.1ZM97.6,756.3l-1.9-4.4,2.2-.9c.9-.4,1.8-.8,2.8-1.1l2.2-.9,1.8,4.5-2.2.9c-.9.4-1.8.7-2.7,1.1l-2.2.9ZM114.1,749.9l-1.6-4.6,2.3-.8c.9-.3,1.9-.7,2.8-1l2.3-.8,1.6,4.6-2.3.8c-.9.3-1.9.6-2.8,1l-2.3.8ZM131,744.3l-1.4-4.6,2.3-.7c1-.3,1.9-.6,2.9-.9l2.3-.7,1.4,4.6-2.3.7c-.9.3-1.9.6-2.8.8l-2.3.7ZM148.2,739.3l-1.3-4.7,7.5-2,1.2,4.7-7.5,2ZM165.4,734.8l-1.2-4.7,7.6-1.9,1.2,4.7-7.6,1.9ZM182.8,730.5l-1.2-4.7,7.6-1.9,1.2,4.7-7.6,1.9ZM200.2,726.1l-1.2-4.7,2.3-.6c1-.2,1.9-.5,2.9-.8l2.3-.6,1.2,4.7-2.3.6c-1,.3-1.9.5-2.9.8l-2.3.6ZM217.5,721.4l-1.3-4.6,2.3-.7c1-.3,1.9-.6,2.8-.8l2.3-.7,1.4,4.6-2.3.7c-1,.3-1.9.6-2.9.8l-2.3.7ZM234.8,716.1l-1.6-4.6,2.3-.8c.9-.3,1.9-.6,2.8-1l2.3-.8,1.6,4.5-2.3.8c-.9.3-1.9.7-2.8,1l-2.3.8ZM251.7,709.8l-1.9-4.4,2.2-1c.9-.4,1.8-.8,2.7-1.2l2.2-1,2,4.4-2.2,1c-.9.4-1.8.8-2.8,1.2l-2.2,1ZM268.1,701.9l-2.4-4.2,2.1-1.2c.8-.5,1.7-1,2.5-1.5l2-1.3,2.6,4.1-2,1.3c-.9.5-1.7,1.1-2.6,1.6l-2.1,1.2ZM283.2,691.7l-3.2-3.6,1.8-1.6c.7-.6,1.4-1.3,2.1-1.9l1.8-1.6,3.3,3.5-1.8,1.6c-.7.7-1.5,1.4-2.3,2l-1.8,1.6ZM296,678.5l-4-2.8,1.4-2c.6-.8,1.1-1.6,1.6-2.4l1.3-2,4.1,2.6-1.3,2c-.5.9-1.1,1.7-1.7,2.6l-1.4,2ZM304.9,662.5l-4.5-1.7.9-2.3c.3-.9.7-1.8,1-2.8l.8-2.3,4.5,1.6-.8,2.3c-.3,1-.7,1.9-1.1,2.8l-.9,2.3ZM310.8,645.5l-4.6-1.3.7-2.3c.3-.9.5-1.9.8-2.8l.6-2.3,4.6,1.3-.6,2.3c-.3,1-.5,1.9-.8,2.9l-.7,2.3ZM315.4,628l-4.7-1.1.5-2.3c.2-1,.4-1.9.6-2.9l.5-2.4,4.7,1-.5,2.4c-.2,1-.4,2-.7,2.9l-.5,2.3ZM319.1,610.4l-4.7-.9.4-2.4c.2-1,.3-1.9.5-2.9l.4-2.4,4.8.8-.4,2.4c-.2,1-.3,2-.5,3l-.4,2.4ZM322.1,592.7l-4.8-.7.3-2.4c.1-1,.3-2,.4-2.9l.3-2.4,4.8.7-.3,2.4c-.1,1-.3,2-.4,3l-.3,2.4ZM324.4,574.9l-4.8-.5.3-2.4c.1-1,.2-2,.3-3l.2-2.4,4.8.5-.2,2.4c-.1,1-.2,2-.3,3l-.3,2.4ZM326.1,557l-4.8-.4.2-2.4c0-1,.1-2,.2-3l.2-2.4,4.8.3-.2,2.4c0,1-.1,2-.2,3l-.2,2.4ZM327.2,539.1l-4.8-.2v-2.4c.1-1,.2-2,.2-3v-2.4c0,0,4.9.2,4.9.2v2.4c-.1,1-.2,2-.2,3v2.4ZM141.7,528.1c-.5,0-1,0-1.5,0h-2.4s0-4.8,0-4.8h2.4c.5,0,1,0,1.5,0,.5,0,1,0,1.4,0h2.4s0,4.8,0,4.8h-2.4c-.5,0-1,0-1.5,0ZM127.4,527.3l-2.4-.3c-1-.1-2-.3-3-.4l-2.4-.4.8-4.8,2.4.4c1,.2,1.9.3,2.9.4l2.4.3-.6,4.8ZM155.9,527.3l-.7-4.8,2.6-.4c.9-.1,1.8-.3,2.7-.4l2.4-.4.7,4.8-2.4.4c-.9.1-1.8.3-2.8.4l-2.6.4ZM173.7,524.2l-1.1-4.7,2.3-.5c1-.2,1.9-.4,2.9-.7l2.3-.6,1.2,4.7-2.3.6c-1,.2-2,.5-2.9.7l-2.3.5ZM109.5,523.9l-2.3-.7c-1-.3-1.9-.6-2.9-.9l-2.3-.7,1.4-4.6,2.3.7c.9.3,1.9.6,2.8.8l2.3.7-1.3,4.6ZM327.8,521.1h-4.8c0,0,0-2.5,0-2.5,0-1,0-2,0-3v-2.4s4.8,0,4.8,0v2.4c0,1,0,2,0,3v2.4ZM191.2,519.5l-1.6-4.6,2.3-.8c.9-.3,1.8-.7,2.8-1l2.3-.8,1.7,4.5-2.3.8c-.9.4-1.9.7-2.8,1l-2.3.8ZM92.3,517.9l-2.2-1c-.9-.4-1.8-.9-2.7-1.3l-2.2-1.1,2.1-4.3,2.2,1.1c.9.4,1.8.8,2.6,1.2l2.2,1-2,4.4ZM208.1,512.7l-2.2-4.3,2.1-1.1c.9-.4,1.7-.9,2.6-1.4l2.1-1.1,2.3,4.2-2.1,1.1c-.9.5-1.8,1-2.7,1.4l-2.2,1.1ZM76.1,509.5l-2-1.3c-.8-.5-1.7-1.1-2.5-1.7l-2-1.4,2.7-4,2,1.4c.8.6,1.6,1.1,2.4,1.6l2,1.3-2.6,4.1ZM223.9,503.6l-2.8-3.9,2-1.4c.8-.6,1.6-1.1,2.3-1.7l1.9-1.5,2.9,3.8-1.9,1.5c-.8.6-1.6,1.2-2.4,1.8l-2,1.4ZM322.9,503.3v-2.4c0-1,0-2-.1-3v-2.4c0,0,4.8-.1,4.8-.1v2.4c0,1,.1,2,.1,3v2.4c0,0-4.8.1-4.8.1ZM61.4,498.8l-1.8-1.6c-.8-.7-1.5-1.3-2.3-2l-1.8-1.6,3.2-3.6,1.8,1.6c.7.7,1.5,1.3,2.2,1.9l1.8,1.6-3.2,3.6ZM238,492.1l-3.4-3.4,1.7-1.7c.7-.7,1.4-1.4,2-2.1l1.7-1.7,3.5,3.3-1.7,1.7c-.7.7-1.4,1.5-2.1,2.2l-1.7,1.7ZM48.2,486.3l-1.6-1.8c-.7-.7-1.3-1.5-2-2.3l-1.6-1.8,3.7-3.1,1.6,1.8c.6.7,1.3,1.5,1.9,2.2l1.6,1.8-3.6,3.2ZM322.3,485.5v-2.4c-.2-1-.2-2-.3-3v-2.4c-.1,0,4.7-.3,4.7-.3v2.4c.2,1,.3,2,.3,3v2.4c.1,0-4.7.3-4.7.3ZM250.3,478.6l-3.9-2.9,1.4-1.9c.6-.8,1.2-1.6,1.7-2.4l1.4-2,3.9,2.8-1.4,2c-.6.8-1.2,1.6-1.8,2.5l-1.4,1.9ZM36.7,472.2l-1.4-2c-.6-.8-1.1-1.6-1.7-2.5l-1.4-2,4-2.7,1.4,2c.6.8,1.1,1.6,1.7,2.4l1.4,2-3.9,2.8ZM321.1,467.7l-.2-2.4c0-1-.2-2-.3-3l-.2-2.4,4.8-.5.2,2.4c0,1,.2,2,.3,3l.2,2.4-4.8.4ZM260.4,463.5l-4.2-2.4,1.2-2.1c.5-.8.9-1.7,1.4-2.6l1.1-2.1,4.2,2.3-1.1,2.1c-.5.9-1,1.8-1.5,2.7l-1.2,2.1ZM26.9,457l-1.2-2.1c-.5-.9-1-1.8-1.5-2.6l-1.1-2.1,4.2-2.3,1.1,2.1c.5.9.9,1.7,1.4,2.6l1.2,2.1-4.2,2.4ZM319.3,450l-.3-2.4c-.1-1-.3-2-.4-2.9l-.3-2.4,4.8-.6.3,2.4c.1,1,.3,2,.4,3l.3,2.4-4.8.6ZM268.7,447.4l-4.4-1.9.9-2.2c.4-.9.8-1.8,1.1-2.7l.9-2.2,4.5,1.8-.9,2.2c-.4.9-.8,1.9-1.2,2.8l-.9,2.2ZM18.6,440.9l-1-2.2c-.4-.9-.8-1.8-1.2-2.8l-.9-2.2,4.4-1.9.9,2.2c.4.9.8,1.8,1.2,2.7l1,2.2-4.4,2ZM316.8,432.4l-.4-2.4c-.2-1-.3-1.9-.5-2.9l-.4-2.4,4.8-.8.4,2.4c.2,1,.3,2,.5,2.9l.4,2.4-4.8.8ZM275.2,430.5l-4.6-1.5.7-2.3c.3-.9.6-1.9.9-2.8l.7-2.3,4.6,1.4-.7,2.3c-.3,1-.6,1.9-.9,2.9l-.7,2.3ZM11.8,424.2l-.8-2.3c-.3-.9-.7-1.9-1-2.8l-.8-2.3,4.6-1.6.8,2.3c.3.9.6,1.9,1,2.8l.8,2.3-4.5,1.6ZM313.6,414.9l-.5-2.4c-.2-1-.4-1.9-.6-2.9l-.5-2.4,4.7-1,.5,2.4c.2,1,.4,2,.6,2.9l.5,2.4-4.7,1ZM280,413l-4.7-1,.5-2.4c.2-1,.4-1.9.6-2.9l.5-2.4,4.7.9-.5,2.4c-.2,1-.4,2-.6,3l-.5,2.4ZM6.2,407.1l-.6-2.3c-.3-1-.5-1.9-.8-2.9l-.6-2.3,4.7-1.2.6,2.3c.3,1,.5,1.9.8,2.8l.6,2.3-4.6,1.3ZM309.6,397.6l-.6-2.3c-.3-1-.5-1.9-.8-2.9l-.6-2.3,4.6-1.3.6,2.3c.3,1,.5,1.9.8,2.9l.6,2.3-4.7,1.2ZM283.2,395.3l-4.8-.7.3-2.4c.1-1,.3-1.9.4-2.9l.3-2.4,4.8.6-.3,2.4c-.1,1-.3,2-.4,3l-.3,2.4ZM2.3,389.1v-2.4c-.2-1-.2-2.1-.2-3.1v-2.4s4.8,0,4.8,0v2.4c0,1,0,1.9.1,2.9v2.4c.1,0-4.7.3-4.7.3ZM304.7,380.5l-.7-2.3c-.3-.9-.6-1.9-.9-2.8l-.8-2.3,4.6-1.5.8,2.3c.3.9.6,1.9.9,2.9l.7,2.3-4.6,1.5ZM285.4,377.4l-4.8-.4.2-2.4c0-1,.2-2,.3-3l.2-2.4,4.8.4-.2,2.4c0,1-.2,2-.3,3l-.2,2.4ZM7.8,371.6l-4.7-.9.5-2.4c.2-1,.4-2,.6-3l.5-2.4,4.7,1.1-.5,2.4c-.2.9-.4,1.9-.6,2.8l-.5,2.4ZM298.9,363.8l-.9-2.2c-.4-.9-.7-1.8-1.1-2.7l-.9-2.2,4.5-1.8.9,2.2c.4.9.8,1.9,1.1,2.8l.9,2.2-4.5,1.8ZM286.7,359.5l-4.8-.3v-2.4c.2-1,.2-2,.3-3v-2.4c.1,0,4.9.2,4.9.2v2.4c-.2,1-.2,2-.3,3v2.4ZM12.3,354.8l-4.5-1.8.9-2.2c.4-.9.8-1.9,1.2-2.8l1-2.2,4.4,1.9-1,2.2c-.4.9-.8,1.8-1.1,2.7l-.9,2.2ZM292,347.5l-1-2.2c-.4-.9-.9-1.8-1.3-2.7l-1.1-2.2,4.3-2.1,1.1,2.2c.4.9.9,1.8,1.3,2.7l1,2.2-4.3,2.1ZM287.5,341.6h-4.8c0-.1,0-2.5,0-2.5,0-1,0-2,0-3v-2.4s4.9,0,4.9,0v2.4c0,1,0,2-.1,3v2.4ZM19.7,339l-4.2-2.4,1.2-2.1c.5-.9,1-1.7,1.6-2.6l1.3-2.1,4.1,2.5-1.3,2.1c-.5.8-1,1.7-1.5,2.5l-1.2,2.1ZM29.2,324.2l-3.8-2.9,1.5-1.9c.6-.8,1.2-1.6,1.9-2.4l1.5-1.9,3.8,3-1.5,1.9c-.6.8-1.2,1.5-1.8,2.3l-1.5,1.9ZM274.5,316.8l-1.4-2c-.6-.8-1.1-1.6-1.7-2.4l-1.4-1.9,3.9-2.9,1.4,1.9c.6.8,1.2,1.6,1.8,2.4l1.4,2-3.9,2.8ZM40.4,310.6l-3.5-3.3,1.7-1.8c.7-.7,1.4-1.5,2.1-2.2l1.7-1.7,3.5,3.4-1.7,1.7c-.7.7-1.4,1.4-2,2.1l-1.7,1.8ZM282.8,305.8l-.2-7.8h4.8c0-.1.2,7.7.2,7.7h-4.8ZM283.1,324.8v-7.8s4.8,0,4.8,0v7.7s-4.8,0-4.8,0ZM263.7,302.9l-1.6-1.8c-.7-.7-1.3-1.5-2-2.2l-1.6-1.8,3.5-3.3,1.6,1.8c.7.7,1.4,1.5,2,2.2l1.6,1.8-3.6,3.2ZM53,298.2l-3.2-3.6,1.8-1.6c.8-.7,1.5-1.3,2.3-2l1.8-1.6,3.1,3.7-1.8,1.6c-.7.6-1.5,1.3-2.2,1.9l-1.8,1.6ZM251.5,290.3l-1.8-1.6c-.7-.6-1.5-1.3-2.2-1.9l-1.8-1.6,3.1-3.7,1.8,1.6c.8.6,1.5,1.3,2.3,2l1.8,1.6-3.2,3.6ZM282.3,287.9l-.3-7.8,4.8-.2.3,7.8-4.8.2ZM66.6,287l-2.8-3.9,2-1.4c.8-.6,1.6-1.2,2.5-1.8l2-1.4,2.8,3.9-2,1.4c-.8.6-1.6,1.1-2.4,1.7l-2,1.4ZM237.9,279.3l-2-1.4c-.8-.5-1.6-1.1-2.4-1.6l-2-1.3,2.6-4.1,2,1.3c.9.5,1.7,1.1,2.5,1.7l2,1.4-2.7,4ZM81.3,277.1l-2.5-4.2,2.1-1.2c.9-.5,1.7-1,2.6-1.5l2.1-1.2,2.4,4.2-2.1,1.2c-.9.5-1.7,1-2.5,1.5l-2.1,1.2ZM222.9,270.2l-2.2-1.1c-.9-.4-1.7-.9-2.6-1.3l-2.2-1,2-4.4,2.2,1c.9.4,1.8.9,2.7,1.3l2.2,1.1-2.1,4.3ZM281.6,270.1l-.4-7.8,4.8-.3.4,7.8-4.8.3ZM96.7,268.7l-2-4.4,2.2-1c.9-.4,1.8-.8,2.8-1.2l2.2-1,1.9,4.4-2.2,1c-.9.4-1.8.8-2.7,1.2l-2.2,1ZM206.8,263.2l-2.3-.8c-.9-.3-1.8-.6-2.8-.9l-2.3-.7,1.4-4.6,2.3.7c1,.3,1.9.6,2.9.9l2.3.8-1.5,4.6ZM113,261.9l-1.5-4.6,2.3-.8c1-.3,1.9-.6,2.9-.9l2.3-.7,1.4,4.6-2.3.7c-.9.3-1.9.6-2.8.9l-2.3.8ZM190,258.4l-2.4-.5c-1-.2-1.9-.4-2.9-.5l-2.4-.4.9-4.7,2.4.4c1,.2,2,.4,3,.6l2.4.5-1,4.7ZM129.9,257.2l-.9-4.7,2.4-.4c1-.2,2-.4,3-.5l2.4-.4.8,4.8-2.4.4c-1,.2-1.9.3-2.9.5l-2.4.4ZM172.6,255.6l-2.4-.2c-1,0-1.9-.2-2.9-.2l-2.4-.2.3-4.8,2.4.2c1,0,2,.1,3,.2l2.4.2-.4,4.8ZM147.3,255.1l-.2-4.8h2.4c1-.1,2-.1,3-.2h2.4s0,4.8,0,4.8h-2.4c-1,0-2,0-2.9.1h-2.4ZM280.5,252.3l-.5-7.8,4.8-.3.5,7.8-4.8.3ZM279.3,234.4l-.6-7.8,4.8-.4.6,7.8-4.8.4ZM277.8,216.6l-.7-7.8,4.8-.4.7,7.8-4.8.4ZM276.2,198.8l-.8-7.8,4.8-.5.8,7.8-4.8.5ZM274.3,181.1l-.9-7.8,4.8-.5.9,7.8-4.8.5ZM272.3,163.3l-.9-7.7,4.8-.6.9,7.8-4.8.6ZM270.2,145.6l-1-7.7,4.8-.6,1,7.7-4.8.6ZM267.8,127.8l-1.1-7.7,4.8-.7,1.1,7.7-4.8.7ZM265.2,110.2l-.4-2.4c-.2-1.2-.3-2.2-.5-2.9l-.4-2.4,4.8-.8.4,2.4c.1.8.3,1.8.5,3l.4,2.4-4.8.8Z"/>
  <path d="M165.5,71.9l-.8-6.1,4.8-.7.9,6.1-4.8.7ZM163.1,55.9l-.4-2.4c-.2-1-.3-2-.5-2.9l-.4-2.4,4.8-.8.4,2.4c.2,1,.3,2,.5,3l.4,2.4-4.8.8ZM160.2,38.4l-.5-2.4c-.2-1-.4-2-.6-2.9l-.5-2.4,4.7-1,.5,2.4c.2,1,.4,1.9.6,2.9l.5,2.4-4.7.9ZM156.5,21.1l-.6-2.3c-.2-1-.5-1.9-.7-2.8l-.6-2.3,4.7-1.2.6,2.3c.3.9.5,1.9.8,2.9l.6,2.3-4.7,1.2ZM151.6,4.2l-.8-2.3c-.3-.9-.7-1.9-1-2.8l-.8-2.3,4.5-1.7.8,2.3c.3.9.7,1.9,1,2.8l.8,2.3-4.6,1.6Z"/>
  <path d="M280.5,1454.5l-.5-7.8,4.8-.3.5,7.8-4.8.3ZM279.3,1436.7l-.6-7.8,4.8-.4.6,7.8-4.8.4ZM277.8,1418.9l-.7-7.8,4.8-.4.7,7.8-4.8.4ZM276.2,1401.1l-.8-7.8,4.8-.5.8,7.8-4.8.5ZM274.3,1383.3l-.9-7.8,4.8-.5.9,7.8-4.8.5ZM272.3,1365.6l-.9-7.7,4.8-.6.9,7.8-4.8.6ZM270.2,1347.8l-1-7.7,4.8-.6,1,7.7-4.8.6ZM267.8,1330.1l-1.1-7.7,4.8-.7,1.1,7.7-4.8.7ZM265.2,1312.4l-.4-2.4c-.2-1.2-.3-2.2-.5-2.9l-.4-2.4,4.8-.8.4,2.4c.1.8.3,1.8.5,3l.4,2.4-4.8.8Z"/>
</svg>