<?xml version="1.0" encoding="UTF-8"?>
<svg id="Layer_1" xmlns="http://www.w3.org/2000/svg" xmlns:xlink="http://www.w3.org/1999/xlink" version="1.1" viewBox="0 0 354.1 1452.5">
  <!-- Generator: Adobe Illustrator 29.0.0, SVG Export Plug-In . SVG Version: 2.1.0 Build 186)  -->
  <defs>
    <style>
      .st0, .st1, .st2 {
        fill: none;
      }

      .st3 {
        clip-path: url(#clippath-17);
      }

      .st4 {
        clip-path: url(#clippath-19);
      }

      .st5 {
        clip-path: url(#clippath-11);
      }

      .st6 {
        clip-path: url(#clippath-16);
      }

      .st7 {
        clip-path: url(#clippath-18);
      }

      .st8 {
        clip-path: url(#clippath-10);
      }

      .st9 {
        clip-path: url(#clippath-15);
      }

      .st10 {
        clip-path: url(#clippath-13);
      }

      .st11 {
        clip-path: url(#clippath-14);
      }

      .st12 {
        clip-path: url(#clippath-12);
      }

      .st13 {
        clip-path: url(#clippath-1);
      }

      .st14 {
        clip-path: url(#clippath-3);
      }

      .st15 {
        clip-path: url(#clippath-4);
      }

      .st16 {
        clip-path: url(#clippath-2);
      }

      .st17 {
        clip-path: url(#clippath-7);
      }

      .st18 {
        clip-path: url(#clippath-6);
      }

      .st19 {
        clip-path: url(#clippath-9);
      }

      .st20 {
        clip-path: url(#clippath-8);
      }

      .st21 {
        clip-path: url(#clippath-5);
      }

      .st1 {
        stroke-dasharray: 3 15;
        stroke-linecap: square;
        stroke-width: 4.9px;
      }

      .st1, .st2 {
        stroke: #000;
        stroke-miterlimit: 10;
      }

      .st2 {
        stroke-width: .8px;
      }

      .st22 {
        clip-path: url(#clippath);
      }
    </style>
    <clipPath id="clippath">
      <rect class="st0" x="99.1" y="62.1" width="155.9" height="38"/>
    </clipPath>
    <clipPath id="clippath-1">
      <rect class="st0" x="99.1" y="62.1" width="155.9" height="38"/>
    </clipPath>
    <clipPath id="clippath-2">
      <rect class="st0" x="99.1" y="62.1" width="155.9" height="38"/>
    </clipPath>
    <clipPath id="clippath-3">
      <rect class="st0" x="99.1" y="62.1" width="155.9" height="38"/>
    </clipPath>
    <clipPath id="clippath-4">
      <rect class="st0" x="99.1" y="62.1" width="155.9" height="38"/>
    </clipPath>
    <clipPath id="clippath-5">
      <rect class="st0" x="99.1" y="62.1" width="155.9" height="38"/>
    </clipPath>
    <clipPath id="clippath-6">
      <rect class="st0" x="99.1" y="62.1" width="155.9" height="38"/>
    </clipPath>
    <clipPath id="clippath-7">
      <rect class="st0" x="99.1" y="62.1" width="155.9" height="38"/>
    </clipPath>
    <clipPath id="clippath-8">
      <rect class="st0" x="99.1" y="62.1" width="155.9" height="38"/>
    </clipPath>
    <clipPath id="clippath-9">
      <rect class="st0" x="99.1" y="62.1" width="155.9" height="38"/>
    </clipPath>
    <clipPath id="clippath-10">
      <rect class="st0" x="99.1" y="1296.5" width="155.9" height="38"/>
    </clipPath>
    <clipPath id="clippath-11">
      <rect class="st0" x="99.1" y="1296.5" width="155.9" height="38"/>
    </clipPath>
    <clipPath id="clippath-12">
      <rect class="st0" x="99.1" y="1296.5" width="155.9" height="38"/>
    </clipPath>
    <clipPath id="clippath-13">
      <rect class="st0" x="99.1" y="1296.5" width="155.9" height="38"/>
    </clipPath>
    <clipPath id="clippath-14">
      <rect class="st0" x="99.1" y="1296.5" width="155.9" height="38"/>
    </clipPath>
    <clipPath id="clippath-15">
      <rect class="st0" x="99.1" y="1296.5" width="155.9" height="38"/>
    </clipPath>
    <clipPath id="clippath-16">
      <rect class="st0" x="99.1" y="1296.5" width="155.9" height="38"/>
    </clipPath>
    <clipPath id="clippath-17">
      <rect class="st0" x="99.1" y="1296.5" width="155.9" height="38"/>
    </clipPath>
    <clipPath id="clippath-18">
      <rect class="st0" x="99.1" y="1296.5" width="155.9" height="38"/>
    </clipPath>
    <clipPath id="clippath-19">
      <rect class="st0" x="99.1" y="1296.5" width="155.9" height="38"/>
    </clipPath>
  </defs>
  <path class="st1" d="M237.4,96.5c11.3,53.8,5.4,91.2-106.1,125.2C24.8,243.6,2.7,359.6,43.9,443.4c52.5,106.8,207.6,122.6,265.8,51.9,31.5-38.4,41.6-123,3.8-170.2-35-43.7-95.8-45.1-136-29.8-59.3,22.6-80.7,84.1-88.7,107.3-22.9,65.8-21.1,165.7,31.4,209.8,67.8,57,181-12.6,214.3,43.1,9,15.1,10.1,35.8,4.6,51.9-23,67.4-150.8,22.5-251.3,109.8-40.7,35.4-91.7,99.9-73.9,147,11.1,29.5,49.2,52.5,81.3,46.1,61.1-12.2,56.4-121.7,113.6-137.2,54.5-14.8,148.5,60,142.3,139.2-4.1,52-48.4,100.4-97.9,110-90.4,17.4-144.5-109.6-199.4-83.7-35.3,16.7-53.1,85.3-15.9,109.3s100.4-29.9,127.7,15.2c19.5,32.3-39.4,93.9-28.4,140.1"/>
  <g id="_x5F_notm_x5F_mxrkspot">
    <g class="st22">
      <g>
        <g class="st13">
          <path d="M200.8,76.6c-1.3-1.3-1.8-1.7-3-1.5-.5,0-2,1.4-1.9,2.1.5,3,6.5,1.5,7.5,6.8.2,1,.5,7.2-6.5,8.3-4.6.8-7.7-2.9-7.7-2.9.5-1.2,1.6-3.4,2.5-5.3,1.6,1,2.4,1.8,3.6,1.5.9-.1,1.3-.7,1.2-1.8-.3-2.8-5.9-1.8-6.8-6.6-.5-3,2.9-6,5.4-6.6,1-.3,6,0,7.3,1.7-.5,1.5-1.4,3.7-1.6,4.1"/>
        </g>
        <g class="st16">
          <path d="M216.4,90c-1.2,0-3-.3-4.1-.5,0,1.8,0,8.2,0,10.2-1.8.4-4.3.3-6.1.4.2-3.3,0-26,0-26,1,0,4.6,0,5.6,0,.1,1.8,0,.8.1,2,.5-1.3,2.1-3.5,6.1-3.4,5.5,0,6.5,3.7,6.5,7.5,0,7-4.2,9.8-8.1,9.9M215.6,77.1c-1.4,0-3.4,2.7-3.5,4.2-.1,2.4,1,4.5,3.4,4.5,3.1,0,3.7-3.1,3.8-5.3,0-2.7-2.6-3.4-3.7-3.4"/>
        </g>
        <g class="st14">
          <path d="M254.8,75.6c-1.3,0-4-.2-4.6-.2,0,0-.4,13.2-.5,14.7-.8,0-3.8.1-5.1,0l.6-14.6h-4.6v-3.8s4.6,0,4.6,0c0-.7,0-4.6,0-4.6.9,0,4.6-.1,5-.1,0,1.8,0,4.1,0,4.6.6,0,5,0,5,0,0,.8-.1,4-.1,4"/>
        </g>
        <g class="st15">
          <path d="M234.8,80.7c.3.7-.3,1.8-.9,2.1-.6.4-2,.2-2.4-.7-.2-.4-.2-1.6.8-2.2,1.2-.7,2.2,0,2.5.8"/>
        </g>
        <g class="st21">
          <path d="M99.1,87.3h2.4c.5,0,.7-.2.7-.7v-10.6c0-.5-.2-.7-.7-.7h-2.4v-3.1h5.6v3.3c1.1-2.2,3.4-3.7,5.7-3.7s4,.6,4.8,3.7c1-2.2,3.3-3.7,5.5-3.7s5.1.7,5.1,5.7v9.2c0,.5.2.7.7.7h2.2v2.9h-8.2v-2.9h1.9c.5,0,.7-.2.7-.7v-7.4c0-3-1.1-4.1-3.5-4.1s-3,.5-4.3,1.4v10.1c0,.5.2.7.7.7h1.8v2.9h-7.9v-2.9h1.9c.5,0,.7-.2.7-.7v-7.4c0-3-1.3-4.1-3.4-4.1s-3.1.5-4.5,1.5v10c0,.5.2.7.7.7h1.8v2.9h-8.3v-2.9Z"/>
        </g>
        <g class="st18">
          <path d="M151.4,87.2h2.4c.5,0,.7-.2.7-.7v-10.6c0-.5-.2-.7-.7-.7h-2.4v-3.1h5.6v3.3c.7-2.1,2.6-3.6,4.9-3.6s1.3.1,2,.3v3.3c-.7,0-1.4-.2-2.1-.2-1.5,0-3.1.4-4.6,1.1v10.2c0,.5.2.7.7.7h2.4v2.9h-8.9v-2.9h0Z"/>
        </g>
        <g class="st17">
          <path d="M174.1,81.8l-2.9,2.6v2c0,.5.2.7.7.7h1.9v2.9h-8.2v-2.9h2.2c.5,0,.7-.2.7-.7v-20.4c0-.5-.2-.7-.7-.7h-2.2v-3.2h5.6v19.5l7.4-6.7h-2.5v-2.9h8.3v3.1h-2c-.5,0-1.1.3-1.6.7l-4.8,4.2,4.4,6.4c.4.5.7.7,1.3.7h2.7v2.9h-4.8l-5.6-8.2Z"/>
        </g>
        <g class="st20">
          <polygon points="134.2 76.7 136.9 75.1 139.8 79.4 143 74.8 145.8 76.3 141.4 81.4 145.5 86.2 142.8 87.8 139.9 83.6 137.3 87.4 134.3 86.3 138.3 81.5 134.2 76.7"/>
        </g>
        <g class="st19">
          <polygon class="st2" points="134.2 76.7 136.9 75.1 139.8 79.4 143 74.8 145.8 76.3 141.4 81.4 145.5 86.2 142.8 87.8 139.9 83.6 137.3 87.4 134.3 86.3 138.3 81.5 134.2 76.7"/>
        </g>
      </g>
    </g>
  </g>
  <line class="st0" x1="107.6" y1="-4.4" x2="102.6" y2="-4.4"/>
  <g id="_x5F_notm_x5F_mxrkspot1" data-name="_x5F_notm_x5F_mxrkspot">
    <g class="st8">
      <g>
        <g class="st5">
          <path d="M200.8,1311c-1.3-1.3-1.8-1.7-3-1.5-.5,0-2,1.4-1.9,2.1.5,3,6.5,1.5,7.5,6.8.2,1,.5,7.2-6.5,8.3-4.6.8-7.7-2.9-7.7-2.9.5-1.2,1.6-3.4,2.5-5.3,1.6,1,2.4,1.8,3.6,1.5.9-.1,1.3-.7,1.2-1.8-.3-2.8-5.9-1.8-6.8-6.6-.5-3,2.9-6,5.4-6.6,1-.3,6,0,7.3,1.7-.5,1.5-1.4,3.7-1.6,4.1"/>
        </g>
        <g class="st12">
          <path d="M216.4,1324.4c-1.2,0-3-.3-4.1-.5,0,1.8,0,8.2,0,10.2-1.8.4-4.3.3-6.1.4.2-3.3,0-26,0-26,1,0,4.6,0,5.6,0,.1,1.8,0,.8.1,2,.5-1.3,2.1-3.5,6.1-3.4,5.5,0,6.5,3.7,6.5,7.5,0,7-4.2,9.8-8.1,9.9M215.6,1311.5c-1.4,0-3.4,2.7-3.5,4.2-.1,2.4,1,4.5,3.4,4.5,3.1,0,3.7-3.1,3.8-5.3,0-2.7-2.6-3.4-3.7-3.4"/>
        </g>
        <g class="st10">
          <path d="M254.8,1310c-1.3,0-4-.2-4.6-.2,0,0-.4,13.2-.5,14.7-.8,0-3.8.1-5.1,0l.6-14.6h-4.6v-3.8s4.6,0,4.6,0c0-.7,0-4.6,0-4.6.9,0,4.6-.1,5-.1,0,1.8,0,4.1,0,4.6.6,0,5,0,5,0,0,.8-.1,4-.1,4"/>
        </g>
        <g class="st11">
          <path d="M234.8,1315.1c.3.7-.3,1.8-.9,2.1-.6.4-2,.2-2.4-.7-.2-.4-.2-1.6.8-2.2,1.2-.7,2.2,0,2.5.8"/>
        </g>
        <g class="st9">
          <path d="M99.1,1321.6h2.4c.5,0,.7-.2.7-.7v-10.6c0-.5-.2-.7-.7-.7h-2.4v-3.1h5.6v3.3c1.1-2.2,3.4-3.7,5.7-3.7s4,.6,4.8,3.7c1-2.2,3.3-3.7,5.5-3.7s5.1.7,5.1,5.7v9.2c0,.5.2.7.7.7h2.2v2.9h-8.2v-2.9h1.9c.5,0,.7-.2.7-.7v-7.4c0-3-1.1-4.1-3.5-4.1s-3,.5-4.3,1.4v10.1c0,.5.2.7.7.7h1.8v2.9h-7.9v-2.9h1.9c.5,0,.7-.2.7-.7v-7.4c0-3-1.3-4.1-3.4-4.1s-3.1.5-4.5,1.5v10c0,.5.2.7.7.7h1.8v2.9h-8.3v-2.9Z"/>
        </g>
        <g class="st6">
          <path d="M151.4,1321.6h2.4c.5,0,.7-.2.7-.7v-10.6c0-.5-.2-.7-.7-.7h-2.4v-3.1h5.6v3.3c.7-2.1,2.6-3.6,4.9-3.6s1.3.1,2,.3v3.3c-.7,0-1.4-.2-2.1-.2-1.5,0-3.1.4-4.6,1.1v10.2c0,.5.2.7.7.7h2.4v2.9h-8.9v-2.9h0Z"/>
        </g>
        <g class="st3">
          <path d="M174.1,1316.2l-2.9,2.6v2c0,.5.2.7.7.7h1.9v2.9h-8.2v-2.9h2.2c.5,0,.7-.2.7-.7v-20.4c0-.5-.2-.7-.7-.7h-2.2v-3.2h5.6v19.5l7.4-6.7h-2.5v-2.9h8.3v3.1h-2c-.5,0-1.1.3-1.6.7l-4.8,4.2,4.4,6.4c.4.5.7.7,1.3.7h2.7v2.9h-4.8l-5.6-8.2Z"/>
        </g>
        <g class="st7">
          <polygon points="134.2 1311.1 136.9 1309.5 139.8 1313.7 143 1309.1 145.8 1310.6 141.4 1315.8 145.5 1320.6 142.8 1322.2 139.9 1317.9 137.3 1321.8 134.3 1320.7 138.3 1315.9 134.2 1311.1"/>
        </g>
        <g class="st4">
          <polygon class="st2" points="134.2 1311.1 136.9 1309.5 139.8 1313.7 143 1309.1 145.8 1310.6 141.4 1315.8 145.5 1320.6 142.8 1322.2 139.9 1317.9 137.3 1321.8 134.3 1320.7 138.3 1315.9 134.2 1311.1"/>
        </g>
      </g>
    </g>
  </g>
</svg>