<?xml version="1.0" encoding="UTF-8"?>
<svg id="Layer_1" xmlns="http://www.w3.org/2000/svg" version="1.1" viewBox="0 0 100 91.3">
  <!-- Generator: Adobe Illustrator 29.0.0, SVG Export Plug-In . SVG Version: 2.1.0 Build 186)  -->
  <defs>
    <style>
      .st0 {
        fill: #f5f5f5;
      }

      .st1 {
        display: none;
      }
    </style>
  </defs>
  <g id="Layer_11" class="st1">
    <path d="M39.6,37.7c22.8-2,28.3-7.4,28.3-15.5s-6.2-11.8-18.3-11.8-10.1.7-14.3,1.9v13.5h-15V-3.7c8.7-3.1,17.8-5,27.9-5,20.8,0,35.6,10.5,35.6,28.5s-11.7,26.1-29.3,29.1v13.4h-15v-24.6s0,0,.1,0ZM35.4,80.6c0-6,3.6-10.9,11.7-10.9s11.8,4.9,11.8,10.9-3.8,10.7-11.9,10.7-11.6-4.8-11.6-10.7Z"/>
  </g>
  <g id="Layer_2" class="st1">
    <path d="M97.1,30.9h-17.6V13.2c0-1.1-.9-2-2-2h-18V-6.7c0-1.1-.9-2-2-2H2.9c-1.1,0-2,.9-2,2v56.5c0,1.1.9,2,2,2h18v18c0,1.1.9,2,2,2h17.7v17.5c0,1.1.9,2,2,2h54.7c1.1,0,2-.9,2-2v-56.5c-.2-1.1-1.1-1.9-2.2-1.9ZM20.8,13.2v26.5h-7.4c-1.5,0-2.8-1.2-2.8-2.8l.2-30.8c0-1.5,1.2-2.7,2.7-2.7h33.5c1.5,0,2.8,1.2,2.8,2.8v5.1h-27c-1.1-.1-2,.8-2,1.9ZM40.5,32.8v26.8h-7.1c-1.5,0-2.8-1.2-2.8-2.8v-17.2c.1,0,.2-13.6.2-13.6,0-1.5,1.2-2.7,2.7-2.7h33.3c1.5,0,2.8,1.2,2.8,2.8v4.8h-27.2c-1,0-1.9.8-1.9,1.9ZM89.1,76.5c0,1.5-1.2,2.7-2.8,2.7h-33.3c-1.5,0-2.8-1.2-2.7-2.8v-30.8c0-1.5,1.2-2.7,2.8-2.7h33.3c1.5,0,2.8,1.2,2.8,2.8l-.2,30.8h0Z"/>
  </g>
  <path class="st0" d="M49.9.4l-26.5,26.5-4.5,4.5L0,50.3l10.3,10.3,8.5-8.5v36.8c0,1.2.9,2.1,2.1,2.1h58c1.2,0,2.1-.9,2.1-2.1v-36.8l8.5,8.5,10.3-10.4-18.8-18.8L50.1.4M70.6,75.2c0,1.6-1.4,2.9-3,2.9h-35.4c-1.6,0-2.9-1.3-2.9-2.9l.2-32.6c0-.7.2-1.3.6-1.8.2-.2.3-.4.6-.6l13.3-13.3,6-6,6,6,13,13.1,1.4,1.4c.2.4.3.8.3,1.2v32.6h-.1Z"/>
  <g id="Layer_4" class="st1">
    <path d="M24,46.1c0-13.5,7.3-29.9,22.5-29.9s9.8,1.7,13.1,5.2l.6-4.1h15.3l-4.3,25.5c-.2,1.5-.4,3.1-.4,4.5,0,3.2.9,5.8,5.3,5.8,6.4,0,8.9-7.6,8.9-15.9,0-20.7-12.4-33.5-35.5-33.5S15.1,17.1,15.1,41.7s17.2,36.7,38.6,36.7,20.2-2.3,30.5-7v13.2c-10.5,4.5-20.7,6.6-30.5,6.6-28.5,0-51-17.4-51-49.8S25.8-8.7,49.6-8.7s47.8,18.5,47.8,44.3-6.7,32.9-26.1,32.9-13.9-4-15.6-10.1c-3.6,6.2-8.6,9.9-15.3,9.9s-16.4-6.4-16.4-22.2ZM55.3,49.1l2.4-15.6c-2.2-.9-4.7-1.5-7.2-1.5-8,0-12.4,6.4-12.4,12s2.6,8.1,8.1,8.1,6-.9,9.1-3Z"/>
  </g>
</svg>